<svg id="Icons" height="512" viewBox="0 0 74 74" width="512" xmlns="http://www.w3.org/2000/svg"><path d="m71 35.44a1 1 0 0 1 -1-1v-2.91a1 1 0 0 1 2 0v2.91a1 1 0 0 1 -1 1z"/><path d="m67 57.04h-60a5.006 5.006 0 0 1 -5-5v-43.99a5.006 5.006 0 0 1 5-5h60a5.006 5.006 0 0 1 5 5v6.51a1 1 0 1 1 -2 0v-6.51a3 3 0 0 0 -3-3h-60a3 3 0 0 0 -3 3v43.99a3 3 0 0 0 3 3h60a3 3 0 0 0 3-3v-10.6a1 1 0 0 1 2 0v10.6a5.006 5.006 0 0 1 -5 5z"/><path d="m71 25.53a1 1 0 0 1 -1-1v-2.97a1 1 0 0 1 2 0v2.97a1 1 0 0 1 -1 1z"/><path d="m71 46.059h-68a1 1 0 0 1 0-2h68a1 1 0 0 1 0 2z"/><path d="m12.018 51.3h-1.393a1 1 0 0 1 0-2h1.393a1 1 0 0 1 0 2z"/><path d="m55 70.951h-36a1 1 0 0 1 -.634-1.774c4.443-3.637 6.508-8.251 5.815-12.992a1 1 0 1 1 1.978-.289c.688 4.7-.934 9.262-4.6 13.055h30.9c-2.923-3.186-5.278-8.059-4.627-13.04a1 1 0 1 1 1.982.259c-.686 5.263 2.524 10.425 5.8 12.994a1 1 0 0 1 -.614 1.787z"/><path d="m49.727 35.005h-1.827a1 1 0 0 1 0-2h1.83a.1.1 0 0 0 .1-.1v-5.545a2.322 2.322 0 0 1 .6-1.558l1.714-1.9a.325.325 0 0 0 0-.436l-1.711-1.887a2.318 2.318 0 0 1 -.6-1.562v-4.926a.1.1 0 0 0 -.1-.1h-1.833a1 1 0 0 1 0-2h1.83a2.1 2.1 0 0 1 2.1 2.1v4.929a.325.325 0 0 0 .084.218l1.712 1.888a2.318 2.318 0 0 1 0 3.12l-1.714 1.9a.322.322 0 0 0 -.084.217v5.537a2.1 2.1 0 0 1 -2.101 2.105z"/><path d="m26.1 35.005h-1.83a2.1 2.1 0 0 1 -2.1-2.1v-5.545a.327.327 0 0 0 -.084-.218l-1.714-1.9a2.318 2.318 0 0 1 0-3.12l1.711-1.887a.325.325 0 0 0 .085-.219v-4.925a2.1 2.1 0 0 1 2.1-2.1h1.832a1 1 0 0 1 0 2h-1.83a.1.1 0 0 0 -.1.1v4.929a2.318 2.318 0 0 1 -.6 1.563l-1.71 1.886a.325.325 0 0 0 0 .436l1.714 1.9a2.322 2.322 0 0 1 .6 1.558v5.537a.1.1 0 0 0 .1.1h1.826a1 1 0 0 1 0 2z"/><path d="m45.556 29.735h-.45a1 1 0 0 1 0-2h.45a1 1 0 0 1 0 2z"/><path d="m40 29.735h-.448a1 1 0 0 1 0-2h.448a1 1 0 0 1 0 2z"/><path d="m34.447 29.735h-.447a1 1 0 0 1 0-2h.448a1 1 0 0 1 0 2z"/><path d="m28.894 29.735h-.45a1 1 0 0 1 0-2h.45a1 1 0 0 1 0 2z"/></svg>