<svg id="Icons" height="512" viewBox="0 0 74 74" width="512" xmlns="http://www.w3.org/2000/svg"><path d="m43.44 72h-2.97a1 1 0 0 1 0-2h2.97a1 1 0 0 1 0 2z"/><path d="m69 72h-18.56a1 1 0 0 1 0-2h18.56a1 1 0 0 0 1-1v-64a1 1 0 0 0 -1-1h-64a1 1 0 0 0 -1 1v64a1 1 0 0 0 1 1h18.56a1 1 0 1 1 0 2h-18.56a3 3 0 0 1 -3-3v-64a3 3 0 0 1 3-3h64a3 3 0 0 1 3 3v64a3 3 0 0 1 -3 3z"/><path d="m33.47 72h-2.91a1 1 0 0 1 0-2h2.91a1 1 0 0 1 0 2z"/><path d="m71 20.992h-68a1 1 0 0 1 0-2h68a1 1 0 0 1 0 2z"/><path d="m61.866 15.449a3.82 3.82 0 1 1 3.82-3.82 3.825 3.825 0 0 1 -3.82 3.82zm0-5.64a1.82 1.82 0 1 0 1.82 1.82 1.821 1.821 0 0 0 -1.82-1.82z"/><path d="m51.719 15.449a3.82 3.82 0 1 1 3.819-3.82 3.824 3.824 0 0 1 -3.819 3.82zm0-5.64a1.82 1.82 0 1 0 1.819 1.82 1.822 1.822 0 0 0 -1.819-1.82z"/><path d="m41.571 15.449a3.82 3.82 0 1 1 3.821-3.82 3.824 3.824 0 0 1 -3.821 3.82zm0-5.64a1.82 1.82 0 1 0 1.821 1.82 1.821 1.821 0 0 0 -1.821-1.82z"/><path d="m33.314 12.629h-24a1 1 0 0 1 0-2h24a1 1 0 0 1 0 2z"/><path d="m37 62.555a17.059 17.059 0 1 1 17.059-17.055 17.079 17.079 0 0 1 -17.059 17.055zm0-32.117a15.059 15.059 0 1 0 15.059 15.062 15.075 15.075 0 0 0 -15.059-15.062z"/><path d="m42.006 50.765a1 1 0 0 1 -.707-1.707l3.561-3.558-3.56-3.565a1 1 0 0 1 1.414-1.414l4.268 4.268a1 1 0 0 1 0 1.414l-4.268 4.269a1 1 0 0 1 -.708.293z"/><path d="m31.994 50.765a1 1 0 0 1 -.707-.293l-4.268-4.272a1 1 0 0 1 0-1.414l4.268-4.268a1 1 0 0 1 1.413 1.417l-3.56 3.565 3.56 3.558a1 1 0 0 1 -.707 1.707z"/><path d="m35.347 53.586a1 1 0 0 1 -.975-1.227l3.309-14.18a1 1 0 1 1 1.947.454l-3.309 14.18a1 1 0 0 1 -.972.773z"/></svg>